<svg width="100" height="100" viewBox="0 0 100 100" fill="none" xmlns="http://www.w3.org/2000/svg">
<g clip-path="url(#clip0)">
<path d="M50.0001 0.00151617C77.6142 0.00151617 99.9999 22.3873 99.9999 50.0014C99.9999 77.6155 77.6142 100.001 50.0001 100.001C22.386 100.001 0.000207393 77.6155 0.000207393 50.0014C-0.0783669 22.4656 22.1799 0.0800904 49.7154 0.00151617C49.8103 0.00124429 49.9052 0.00124429 50.0001 0.00151617Z" fill="#E73636"/>
<path d="M55.5812 31H45.0004L45.9829 57.6031H54.5987L55.5812 31ZM50.2908 70.3C53.0683 70.3 55.5434 67.9571 55.5812 65.0096C55.5434 62.1377 53.0683 59.7948 50.2908 59.7948C47.3622 59.7948 44.9627 62.1377 45.0004 65.0096C44.9627 67.9571 47.3622 70.3 50.2908 70.3Z" fill="white"/>
</g>
<defs>
<clipPath id="clip0">
<rect width="100" height="100" fill="white"/>
</clipPath>
</defs>
</svg>
